<?xml version="1.0" encoding="UTF-8" standalone="no"?>
<!-- Created with Inkscape (http://www.inkscape.org/) -->

<svg
   xmlns:dc="http://purl.org/dc/elements/1.1/"
   xmlns:cc="http://creativecommons.org/ns#"
   xmlns:rdf="http://www.w3.org/1999/02/22-rdf-syntax-ns#"
   xmlns:svg="http://www.w3.org/2000/svg"
   xmlns="http://www.w3.org/2000/svg"
   xmlns:sodipodi="http://sodipodi.sourceforge.net/DTD/sodipodi-0.dtd"
   xmlns:inkscape="http://www.inkscape.org/namespaces/inkscape"
   width="450pt"
   height="450pt"
   viewBox="0 0 158.75 158.75"
   version="1.1"
   id="svg8"
   inkscape:version="0.92.3 (2405546, 2018-03-11)"
   sodipodi:docname="fast-food-simple.svg"
   inkscape:export-filename="C:\Users\mrohde\Desktop\Personal_Projects\fast_food_infographic\fast-food-simple.png"
   inkscape:export-xdpi="197.084"
   inkscape:export-ydpi="197.084">
  <defs
     id="defs2" />
  <sodipodi:namedview
     id="base"
     pagecolor="#ffffff"
     bordercolor="#666666"
     borderopacity="1.0"
     inkscape:pageopacity="0.0"
     inkscape:pageshadow="2"
     inkscape:zoom="0.7"
     inkscape:cx="460.34814"
     inkscape:cy="310.76563"
     inkscape:document-units="mm"
     inkscape:current-layer="layer1"
     showgrid="false"
     showguides="true"
     inkscape:guide-bbox="true"
     inkscape:window-width="1920"
     inkscape:window-height="986"
     inkscape:window-x="-11"
     inkscape:window-y="-11"
     inkscape:window-maximized="1"
     units="pt">
    <sodipodi:guide
       position="106.11681,209.6823"
       orientation="0,1"
       id="guide25"
       inkscape:locked="false" />
    <sodipodi:guide
       position="53.105655,223.95089"
       orientation="1,0"
       id="guide29"
       inkscape:locked="false" />
    <sodipodi:guide
       position="165.17256,150.20548"
       orientation="0,1"
       id="guide1182"
       inkscape:locked="false" />
    <sodipodi:guide
       position="-77.574979,229.31726"
       orientation="0,1"
       id="guide1332"
       inkscape:locked="false" />
    <sodipodi:guide
       position="-76.305448,225.2414"
       orientation="0,1"
       id="guide1334"
       inkscape:locked="false" />
    <sodipodi:guide
       position="114.9259,73.900024"
       orientation="0,1"
       id="guide1892"
       inkscape:locked="false" />
    <sodipodi:guide
       position="145.26099,-45.43582"
       orientation="1,0"
       id="guide1988"
       inkscape:locked="false" />
    <sodipodi:guide
       position="262.72595,61.471991"
       orientation="1,0"
       id="guide1992"
       inkscape:locked="false" />
    <sodipodi:guide
       position="150.24554,32.883929"
       orientation="1,0"
       id="guide1011"
       inkscape:locked="false" />
    <sodipodi:guide
       position="271.94674,-4.2763124"
       orientation="0,1"
       id="guide1060"
       inkscape:locked="false" />
    <sodipodi:guide
       position="406.51695,41.493594"
       orientation="0,1"
       id="guide1324"
       inkscape:locked="false" />
    <sodipodi:guide
       position="378.40141,36.663691"
       orientation="0,1"
       id="guide1326"
       inkscape:locked="false" />
    <sodipodi:guide
       position="402.54464,-39.309524"
       orientation="0,1"
       id="guide1351"
       inkscape:locked="false" />
  </sodipodi:namedview>
  <metadata
     id="metadata5">
    <rdf:RDF>
      <cc:Work
         rdf:about="">
        <dc:format>image/svg+xml</dc:format>
        <dc:type
           rdf:resource="http://purl.org/dc/dcmitype/StillImage" />
        <dc:title />
      </cc:Work>
    </rdf:RDF>
  </metadata>
  <g
     inkscape:label="Layer 1"
     inkscape:groupmode="layer"
     id="layer1"
     transform="translate(0,-138.25)">
    <g
       id="g1356">
      <path
         sodipodi:nodetypes="cscccccscsccccscsccscsccccscscccc"
         inkscape:connector-curvature="0"
         id="path1349"
         d="m 91.063451,242.67808 c 0,0 2.769945,-8.48939 1.567241,-21.31833 -1.202711,-12.82894 -4.93496,-20.57813 -4.93496,-20.57813 l 5.981104,-1.44033 c 0,0 -1.391691,-6.60625 -3.797084,-11.28346 -2.40543,-4.67722 -3.60815,-5.7463 -3.60815,-5.7463 l 6.515643,-2.35956 c 0,0 8.184125,18.2621 10.322275,26.28019 2.13815,8.01808 2.64027,11.2941 2.64027,11.2941 0,0 0.59813,-9.05924 -1.00424,-18.80845 -1.19989,-7.30039 -4.64479,-14.24913 -4.64479,-14.24913 l 6.40497,-1.96006 -1.14424,-4.38181 7.92719,-2.01946 c 0,0 1.75322,3.23192 3.29503,11.82193 0.93545,5.21176 1.66568,9.73356 1.66568,9.73356 0,0 -0.44004,-4.60009 -0.17274,-11.81637 0.30191,-8.15051 2.00452,-11.15212 2.00452,-11.15212 l 6.35911,1.43362 c 0,0 -2.458,9.58372 -3.31516,21.1048 -0.64637,8.68791 -0.37126,16.08203 -0.37126,16.08203 0,0 1.20272,-7.48355 4.54359,-14.83346 3.34087,-7.34991 6.01356,-12.02713 6.01356,-12.02713 l 5.60989,2.32993 c 0,0 -4.75917,6.75078 -6.22365,11.73427 l 11.61095,4.28962 c 0,0 -2.57755,2.7612 -5.68521,8.14296 -3.56669,6.1767 -3.55301,7.54311 -3.55301,7.54311 0,0 1.19403,-1.67834 2.88484,-3.99622 4.66452,-6.39446 7.0155,-7.64731 7.0155,-7.64731 l 3.68804,4.00511 -13.41815,26.83631 z"
         style="fill:#c16b05;fill-opacity:1;stroke:none;stroke-width:0.26458332px;stroke-linecap:butt;stroke-linejoin:miter;stroke-opacity:1" />
    </g>
    <path
       style="fill:#ffb80f;fill-opacity:0.99224806;stroke:none;stroke-width:0.26458332px;stroke-linecap:butt;stroke-linejoin:miter;stroke-opacity:1"
       d="m 98.972216,246.61681 c 0,0 0,-6.949 -3.474489,-19.51067 -3.474489,-12.56167 -7.7575,-22.27767 -7.7575,-22.27767 l 7.430963,-1.79539 c 0.022,-0.30734 6.90131,18.48773 8.7455,33.16022 0,0 -0.26726,-6.01356 -2.80632,-19.77794 -2.539051,-13.76438 -8.513442,-26.41383 -8.513442,-26.41383 l 6.375298,-1.91674 c 0,0 5.479014,11.89349 8.151714,24.85606 2.67269,12.96258 2.40542,21.68627 2.40542,21.68627 0,0 0.53455,-17.94449 -1.06907,-29.97162 -1.60362,-12.02713 -7.75082,-27.79603 -7.75082,-27.79603 l 8.01808,-2.40543 c 0,0 4.31391,16.67852 6.54811,32.07235 2.40542,16.57359 2.53905,23.11881 2.53905,23.11881 0,0 1.05857,-12.33867 5.13969,-24.8782 4.08112,-12.53953 10.09468,-23.76485 10.09468,-23.76485 l 5.47903,2.00452 c 0,0 -9.2208,16.97161 -12.42804,31.27053 -3.20723,14.29892 -3.0736,22.85155 -3.0736,22.85155 0,0 2.53906,-12.42804 5.61266,-21.64883 3.0736,-9.2208 6.41447,-16.57072 6.41447,-16.57072 l 6.1472,2.6727 c 0,0 -4.54358,9.62171 -7.34991,17.50616 -2.80633,7.88445 -3.89835,20.88445 -3.89835,20.88445 0,0 1.62656,-10.27009 8.7092,-20.45494 7.08264,-10.18485 11.31403,-12.11817 11.31403,-12.11817 l 4.45487,3.93784 c 0,0 -6.81537,6.28083 -12.2944,14.16528 -5.47902,7.88446 -8.15172,21.9161 -8.15172,21.9161 z"
       id="path1347"
       inkscape:connector-curvature="0"
       sodipodi:nodetypes="cscccsccscsccscsccscsccscsccccc" />
    <path
       style="fill:#ec2f2f;fill-opacity:1;stroke:none;stroke-width:0.26458332px;stroke-linecap:butt;stroke-linejoin:miter;stroke-opacity:1"
       d="m 91.817158,278.88792 51.778322,-0.0668 3.40434,-53.18987 -7.0426,-4.80697 c 0,0 -5.87457,15.74716 -22.03613,15.74716 -16.16155,0 -23.10302,-15.77011 -23.10302,-15.77011 l -7.378238,4.8299 z"
       id="path1322"
       inkscape:connector-curvature="0"
       sodipodi:nodetypes="cccczccc" />
    <path
       style="fill:#b50000;fill-opacity:1;stroke:none;stroke-width:0.2653479px;stroke-linecap:butt;stroke-linejoin:miter;stroke-opacity:1"
       d="M 96.459851,278.88197 94.81807,220.80133 c 0,0 5.026643,14.10901 22.96938,14.10901 17.94275,0 22.16977,-14.08608 22.16977,-14.08608 l -1.06958,57.96269 z"
       id="path1329"
       inkscape:connector-curvature="0"
       sodipodi:nodetypes="ccsccc" />
    <g
       id="g1039"
       transform="translate(-185.34865,-57.30318)">
      <rect
         transform="rotate(15.670584)"
         rx="8"
         ry="3.5277777"
         y="136.45592"
         x="280.95169"
         height="56.656368"
         width="4.7247024"
         id="rect1019"
         style="opacity:1;fill:#ffffff;fill-opacity:1;stroke:none;stroke-width:0.59737408;stroke-linecap:round;stroke-miterlimit:4;stroke-dasharray:none;stroke-opacity:1" />
      <path
         sodipodi:nodetypes="cc"
         inkscape:connector-curvature="0"
         id="path1035"
         d="m 236.04949,207.94746 -12.24034,42.56147"
         style="fill:none;stroke:#e01717;stroke-width:0.26458332px;stroke-linecap:butt;stroke-linejoin:miter;stroke-opacity:1" />
    </g>
    <path
       style="fill:#e01717;fill-opacity:1;stroke:none;stroke-width:0.26458332px;stroke-linecap:butt;stroke-linejoin:miter;stroke-opacity:1"
       d="M 10.555952,279.05449 6.4365341,196.89488 H 62.506472 l -4.17697,82.23833 z"
       id="path1013"
       inkscape:connector-curvature="0"
       sodipodi:nodetypes="ccccc" />
    <rect
       style="opacity:1;fill:#ffffff;fill-opacity:1;stroke:none;stroke-width:0.70555556;stroke-linecap:round;stroke-miterlimit:4;stroke-dasharray:none;stroke-opacity:1"
       id="rect1017"
       width="59.567249"
       height="5.3900747"
       x="4.84904"
       y="193.09244"
       ry="2.5513427" />
    <g
       id="g1031"
       transform="translate(-158.04587,-46.946629)">
      <path
         inkscape:connector-curvature="0"
         id="rect1990-0"
         d="m 190.56424,323.24153 v 6.66161 0.1943 h 0.006 c 0.12042,3.59966 3.56345,6.4673 7.8248,6.4673 h 57.1696 c 4.26135,0 7.70438,-2.86764 7.8248,-6.4673 h 0.006 v -0.1943 -6.66161 h -7.83036 -57.16959 z"
         style="opacity:1;fill:#ec9a2e;fill-opacity:1;stroke:none;stroke-width:0.69803375;stroke-linecap:round;stroke-miterlimit:4;stroke-dasharray:none;stroke-opacity:1" />
      <rect
         ry="8"
         rx="8"
         y="308.81592"
         x="190.46146"
         height="14.425632"
         width="73.040215"
         id="rect1898-8-1"
         style="opacity:1;fill:#ae5316;fill-opacity:1;stroke:none;stroke-width:0.70555556;stroke-linecap:round;stroke-miterlimit:4;stroke-dasharray:none;stroke-opacity:1" />
      <rect
         y="303.84439"
         x="195.87198"
         height="5.2117558"
         width="62.808334"
         id="rect1948-8"
         style="opacity:1;fill:#ff5555;fill-opacity:1;stroke:none;stroke-width:0.51094764;stroke-linecap:round;stroke-miterlimit:4;stroke-dasharray:none;stroke-opacity:1" />
      <rect
         ry="8"
         rx="8"
         y="288.66965"
         x="190.46172"
         height="14.425632"
         width="73.040215"
         id="rect1898-8"
         style="opacity:1;fill:#ae5316;fill-opacity:1;stroke:none;stroke-width:0.70555556;stroke-linecap:round;stroke-miterlimit:4;stroke-dasharray:none;stroke-opacity:1" />
      <rect
         y="281.39255"
         x="195.79727"
         height="5.2117558"
         width="62.808334"
         id="rect1948"
         style="opacity:1;fill:#ff5555;fill-opacity:1;stroke:none;stroke-width:0.51094764;stroke-linecap:round;stroke-miterlimit:4;stroke-dasharray:none;stroke-opacity:1" />
      <path
         sodipodi:nodetypes="sccsccccccscs"
         inkscape:connector-curvature="0"
         id="path1894"
         d="m 226.70016,259.39041 c -29.42013,0 -35.16869,11.76763 -36.24689,15.44505 -5e-5,1.8e-4 5e-5,2.7e-4 0,5.3e-4 -0.27382,0.7294 -0.42426,1.51058 -0.42426,2.32544 0,0.0695 0.004,0.13826 0.006,0.20722 -0.003,10e-4 -0.0558,0.0222 -0.0558,0.0222 v 4.88711 H 263.075 v -4.88711 c 0,0 -0.0118,-0.004 -0.0119,-0.004 0.003,-0.0749 0.006,-0.1498 0.006,-0.22531 0,-0.88217 -0.17428,-1.72578 -0.49299,-2.50579 -1.47993,-4.35719 -7.96707,-15.26522 -35.87585,-15.26522 z"
         style="fill:#ec9a2e;fill-opacity:1;stroke:none;stroke-width:0.21150045px;stroke-linecap:butt;stroke-linejoin:miter;stroke-opacity:1" />
      <path
         inkscape:connector-curvature="0"
         id="path1923-0"
         d="m 187.82678,297.51196 c 0,0 1.98631,7.3043 6.39702,7.63829 -0.23164,0.22202 -0.54658,0.43973 -0.98547,0.632 -1.94122,0.85046 -6.30865,0.94517 -6.30865,0.94517 0,0 7.47334,0.56666 10.67635,-0.37828 1.46331,-0.4317 2.25393,-0.85198 2.68562,-1.18287 h 0.80564 c 0.60573,0.90492 2.49013,2.42559 8.35039,2.45877 5.98194,0.0338 7.37191,-1.55391 7.68274,-2.45877 h 0.74207 c 1.14947,0.92049 3.89915,2.55234 8.94932,2.50424 5.99373,-0.0571 7.80998,-1.95193 8.21346,-2.50424 h 0.16846 c 0.29762,0.58481 1.86149,2.67405 9.04441,2.63343 7.50494,-0.0425 8.30558,-2.1959 8.39174,-2.63343 h 0.0315 c 0.088,0.17938 0.56353,0.6202 2.95073,1.32447 3.203,0.94494 10.67686,0.37775 10.67686,0.37775 0,0 -4.36794,-0.0942 -6.30917,-0.94464 -0.69543,-0.30466 -1.08807,-0.67318 -1.30948,-1.02113 2.87707,-0.80018 6.01427,-3.34114 6.82077,-6.35103 0,0 -3.49635,3.96875 -7.37061,3.96875 h -62.36622 c -3.77976,0 -7.9375,-5.00848 -7.9375,-5.00848 z"
         style="fill:#a6d002;fill-opacity:1;stroke:none;stroke-width:0.26458332px;stroke-linecap:butt;stroke-linejoin:miter;stroke-opacity:1" />
      <path
         sodipodi:nodetypes="cccc"
         inkscape:connector-curvature="0"
         id="path1953-6-7"
         d="m 195.50158,288.98995 h 62.80834 c 0,0 -25.10892,-1.66863 -43.75065,8.96137 -11.22187,-10.58611 -19.05769,-8.96137 -19.05769,-8.96137 z"
         style="fill:#facd1d;fill-opacity:1;stroke:none;stroke-width:0.26458332px;stroke-linecap:butt;stroke-linejoin:miter;stroke-opacity:1" />
      <path
         inkscape:connector-curvature="0"
         id="path1923"
         d="m 188.04622,281.35166 c 0,0 1.98631,7.3043 6.39702,7.63829 -0.23164,0.22202 -0.54658,0.43973 -0.98547,0.632 -1.94122,0.85046 -6.30865,0.94517 -6.30865,0.94517 0,0 7.47334,0.56666 10.67635,-0.37828 1.46331,-0.4317 2.25393,-0.85198 2.68562,-1.18287 h 0.80564 c 0.60573,0.90492 2.49013,2.42559 8.35039,2.45877 5.98194,0.0338 7.37191,-1.55391 7.68274,-2.45877 h 0.74207 c 1.14947,0.92049 3.89915,2.55234 8.94932,2.50424 5.99373,-0.0571 7.80998,-1.95193 8.21346,-2.50424 h 0.16846 c 0.29762,0.58481 1.86149,2.67405 9.04441,2.63343 7.50494,-0.0425 8.30558,-2.1959 8.39174,-2.63343 h 0.0315 c 0.088,0.17938 0.56353,0.6202 2.95073,1.32447 3.203,0.94494 10.67686,0.37775 10.67686,0.37775 0,0 -4.36794,-0.0942 -6.30917,-0.94464 -0.69543,-0.30466 -1.08807,-0.67318 -1.30948,-1.02113 2.87707,-0.80018 6.01427,-3.34114 6.82077,-6.35103 0,0 -3.49635,3.96875 -7.37061,3.96875 H 195.9837 c -3.77976,0 -7.9375,-5.00848 -7.9375,-5.00848 z"
         style="fill:#a6d002;fill-opacity:1;stroke:none;stroke-width:0.26458332px;stroke-linecap:butt;stroke-linejoin:miter;stroke-opacity:1" />
      <path
         sodipodi:nodetypes="cccc"
         inkscape:connector-curvature="0"
         id="path1953-6"
         d="m 258.15116,309.05614 h -62.80834 c 0,0 24.16398,-1.19616 42.8057,9.43384 11.22187,-10.58611 20.00264,-9.43384 20.00264,-9.43384 z"
         style="fill:#facd1d;fill-opacity:1;stroke:none;stroke-width:0.26458332px;stroke-linecap:butt;stroke-linejoin:miter;stroke-opacity:1" />
    </g>
    <rect
       style="opacity:1;fill:#f7deb0;fill-opacity:1;stroke:none;stroke-width:1.04253995;stroke-linecap:round;stroke-miterlimit:4;stroke-dasharray:none;stroke-opacity:1"
       id="rect1041"
       width="72.780602"
       height="2.8037474"
       x="32.569027"
       y="276.29489" />
    <rect
       style="opacity:1;fill:#f7deb0;fill-opacity:1;stroke:none;stroke-width:1.01599717;stroke-linecap:round;stroke-miterlimit:4;stroke-dasharray:none;stroke-opacity:1"
       id="rect1041-2"
       width="73.121841"
       height="2.6503727"
       x="31.90733"
       y="232.68098" />
    <path
       style="fill:#5a290c;fill-opacity:1;stroke:none;stroke-width:0.26458332px;stroke-linecap:butt;stroke-linejoin:miter;stroke-opacity:1"
       d="m 32.271202,249.79395 c 0,0 2.3151,4.18091 6.00037,4.18091 h 62.838488 c 2.07887,0 4.25223,-4.18091 4.25223,-4.18091 0,0 -1.08668,5.26759 -5.05543,5.64557 0,0 -58.113778,0.0945 -61.704558,0.0945 -2.75972,-0.44058 -6.3311,-2.26874 -6.3311,-5.74007 z"
       id="path1062"
       inkscape:connector-curvature="0"
       sodipodi:nodetypes="csscccc" />
    <path
       style="fill:#5a290c;fill-opacity:1;stroke:none;stroke-width:0.26458332px;stroke-linecap:butt;stroke-linejoin:miter;stroke-opacity:1"
       d="m 32.216542,270.80207 c 0,0 2.3151,4.18091 6.00037,4.18091 H 101.0554 c 2.07887,0 4.25223,-4.18091 4.25223,-4.18091 0,0 -1.08668,5.26759 -5.05543,5.64557 0,0 -58.113778,0.0945 -61.704558,0.0945 -2.75972,-0.44058 -6.3311,-2.26874 -6.3311,-5.74007 z"
       id="path1062-0"
       inkscape:connector-curvature="0"
       sodipodi:nodetypes="csscccc" />
    <path
       style="fill:#b88c16;fill-opacity:1;stroke:none;stroke-width:0.26458332px;stroke-linecap:butt;stroke-linejoin:miter;stroke-opacity:1"
       d="m 105.34358,283.15079 c 0,0 -2.10741,5.17265 -6.548611,5.17265 H 38.885782 c -4.91369,0 -6.36135,-5.17265 -6.36135,-5.17265 0,0 0.79536,6.36847 6.64288,6.36847 l 59.658367,0.031 c 5.719571,0.003 6.517901,-6.3995 6.517901,-6.3995"
       id="path1079"
       inkscape:connector-curvature="0"
       sodipodi:nodetypes="cssccsc" />
    <path
       style="fill:#eba963;fill-opacity:1;stroke:none;stroke-width:0.26458332px;stroke-linecap:butt;stroke-linejoin:miter;stroke-opacity:1"
       d="m 31.933402,230.4442 c 0,0 1.61957,-7.84945 12.30253,-10.98534 15.37077,-4.51196 33.33838,-4.61042 47.841223,0 8.585785,2.72941 12.940055,10.98134 12.940055,10.98134 0,0 -0.50667,-7.68383 -9.064666,-12.45133 -12.267652,-6.83408 -39.438482,-7.40736 -53.453862,-0.66816 -10.30792,4.95649 -10.56528,13.12349 -10.56528,13.12349 z"
       id="path1083"
       inkscape:connector-curvature="0"
       sodipodi:nodetypes="csscssc" />
  </g>
</svg>
